# xmcd CD database file
#
# Track frame offsets:
#	150
#	19965
#	37210
#	47953
#	63743
#	86413
#	115393
#	131990
#	147775
#
# Disc length: 2194 seconds
#
# Revision: 0
# Processed by: cddbd v1.5PL3 Copyright (c) Steve Scherf et al.
# Submitted via: CDex 1.50beta9
#
DISCID=8b089009
DTITLE=Gram Parsons - G.P. - Grievous Angel
DYEAR=1900
DGENRE=Country
TTITLE0=Return Of The Grievous Angel
TTITLE1=Hearts On Fire
TTITLE2=I Can't Dance
TTITLE3=Brass Buttons
TTITLE4=$1000 Wedding
TTITLE5=Cash on the Barrelhead/Hickory Wind
TTITLE6=Love Hurts
TTITLE7=Ooh Las Vegas
TTITLE8=In My Hour Of Darkness
EXTD=
EXTT0=
EXTT1=
EXTT2=
EXTT3=
EXTT4=
EXTT5=
EXTT6=
EXTT7=
EXTT8=
PLAYORDER=
